<svg width="360" height="177" viewBox="0 0 360 177" fill="none" xmlns="http://www.w3.org/2000/svg">
<path fill-rule="evenodd" clip-rule="evenodd" d="M0 9.04859L12 32.4837C24 57.8717 48 106.695 72 102.789C96 98.8831 120 44.2012 144 36.3895C168 28.5778 192 71.5421 216 71.5421C240 71.5421 264 28.5778 288 11.0015C312 -6.5748 336 1.23689 348 5.14274L360 9.04859V177H348C336 177 312 177 288 177C264 177 240 177 216 177C192 177 168 177 144 177C120 177 96 177 72 177C48 177 24 177 12 177H0V9.04859Z" fill="#66C05D" fill-opacity="0.5"/>
</svg>
