<svg width="1920" height="545" viewBox="0 0 1920 545" fill="none" xmlns="http://www.w3.org/2000/svg">
<path fill-rule="evenodd" clip-rule="evenodd" d="M0 256.84L23 246.84C46 237.84 91 218.84 137 189.84C183 160.84 229 122.84 274 112.84C320 102.84 366 122.84 411 102.84C457 83.8398 503 26.8398 549 6.83981C594 -12.1602 640 6.83981 686 83.8398C731 160.84 777 294.84 823 352.84C869 410.84 914 390.84 960 390.84C1006 390.84 1051 410.84 1097 400.84C1143 390.84 1189 352.84 1234 314.84C1280 275.84 1326 237.84 1371 208.84C1417 179.84 1463 160.84 1509 198.84C1554 237.84 1600 333.84 1646 352.84C1691 371.84 1737 314.84 1783 304.84C1829 294.84 1874 333.84 1897 352.84L1920 371.84V544.84H1897C1874 544.84 1829 544.84 1783 544.84C1737 544.84 1691 544.84 1646 544.84C1600 544.84 1554 544.84 1509 544.84C1463 544.84 1417 544.84 1371 544.84C1326 544.84 1280 544.84 1234 544.84C1189 544.84 1143 544.84 1097 544.84C1051 544.84 1006 544.84 960 544.84C914 544.84 869 544.84 823 544.84C777 544.84 731 544.84 686 544.84C640 544.84 594 544.84 549 544.84C503 544.84 457 544.84 411 544.84C366 544.84 320 544.84 274 544.84C229 544.84 183 544.84 137 544.84C91 544.84 46 544.84 23 544.84H0V256.84Z" fill="#66C05D" fill-opacity="0.5"/>
</svg>
