<svg width="144" height="30" viewBox="0 0 144 30" fill="none" xmlns="http://www.w3.org/2000/svg">
<path d="M2 13C0.89543 13 0 13.8954 0 15C0 16.1046 0.89543 17 2 17V13ZM143.414 16.4142C144.195 15.6332 144.195 14.3668 143.414 13.5858L130.686 0.857864C129.905 0.0768156 128.639 0.0768156 127.858 0.857864C127.077 1.63891 127.077 2.90524 127.858 3.68629L139.172 15L127.858 26.3137C127.077 27.0948 127.077 28.3611 127.858 29.1421C128.639 29.9232 129.905 29.9232 130.686 29.1421L143.414 16.4142ZM2 17H142V13H2V17Z" fill="#C5C5C5"/>
</svg>
